<svg id="songs-list" xmlns="http://www.w3.org/2000/svg" viewBox="0 0 18.883 18.883">
  <defs>
    <style>
      .cls-1 {
        fill-rule: evenodd;
      }
    </style>
  </defs>
  <path id="Path_34" data-name="Path 34" class="cls-1" d="M15.736,14.687V4.2a1.049,1.049,0,0,0-1.049-1.049h-.839V13.218a.629.629,0,0,1-.629.629H3.147v.839A1.049,1.049,0,0,0,4.2,15.736H14.687A1.049,1.049,0,0,0,15.736,14.687Zm2.1-8.392h-.839V16.365a.629.629,0,0,1-.629.629H6.294v.839a1.049,1.049,0,0,0,1.049,1.049H17.834a1.049,1.049,0,0,0,1.049-1.049V7.343A1.049,1.049,0,0,0,17.834,6.294ZM6.294,5.028A1.267,1.267,0,1,0,7.561,6.294,1.267,1.267,0,0,0,6.294,5.028Zm6.294,6.512V1.049A1.049,1.049,0,0,0,11.54,0H1.049A1.049,1.049,0,0,0,0,1.049V11.54a1.049,1.049,0,0,0,1.049,1.049H11.54A1.049,1.049,0,0,0,12.589,11.54Zm-6.294-2.1A3.147,3.147,0,1,1,9.441,6.294,3.147,3.147,0,0,1,6.294,9.441Z"/>
</svg>
