<svg xmlns="http://www.w3.org/2000/svg" viewBox="0 0 19 17"><defs><style>.cls-1{fill:#1d1d1b}</style></defs><path id="Path_39" data-name="Path 39" class="cls-1" d="M.182 4.3a.616.616 0 0 1-.118-.18.525.525 0 0 1-.023-.06.613.613 0 0 1-.033-.16.5.5 0 0 1 0-.06v-.03a.628.628 0 0 1 .04-.183c0-.006.007-.01.01-.017a.633.633 0 0 1 .107-.17C.17 3.43.172 3.42.18 3.414L3.232.188a.6.6 0 0 1 .86-.01.64.64 0 0 1 .01.886L2.452 2.8a17.746 17.746 0 0 1 4.892.19c7.317 1.187 12.495 7.232 11.543 13.477a.613.613 0 0 1-.6.53.64.64 0 0 1-.1-.008.625.625 0 0 1-.506-.717c.848-5.562-3.876-10.966-10.55-12.048a16.68 16.68 0 0 0-4.785-.152L4.9 5.43a.636.636 0 0 1 .262.843.6.6 0 0 1-.818.27L.328 4.41a.632.632 0 0 1-.146-.11z"/></svg>