<svg xmlns="http://www.w3.org/2000/svg" viewBox="0 0 19 17">
  <defs>
    <style>
      .cls-1 {
        fill: #1d1d1b;
      }
    </style>
  </defs>
  <path id="Path_39" data-name="Path 39" class="cls-1" d="M.182,4.3h0l0,0a.616.616,0,0,1-.118-.18.525.525,0,0,1-.023-.06A.613.613,0,0,1,.007,3.9a.5.5,0,0,1,0-.06c0-.011,0-.02,0-.031a.628.628,0,0,1,.04-.182c0-.006.007-.011.009-.017a.633.633,0,0,1,.108-.171c.006-.007.008-.017.015-.024L3.233.188a.6.6,0,0,1,.859-.01.64.64,0,0,1,.01.886L2.452,2.8a17.746,17.746,0,0,1,4.893.19c7.317,1.187,12.495,7.232,11.543,13.477a.613.613,0,0,1-.6.529.641.641,0,0,1-.1-.007.625.625,0,0,1-.506-.716c.848-5.562-3.876-10.966-10.55-12.048a16.681,16.681,0,0,0-4.785-.152L4.9,5.429a.636.636,0,0,1,.262.844.6.6,0,0,1-.818.27L.328,4.41A.632.632,0,0,1,.182,4.3Z"/>
</svg>
