<svg xmlns="http://www.w3.org/2000/svg" viewBox="0 0 19 17">
  <defs>
    <style>
      .cls-1 {
        fill: #1d1d1b;
      }
    </style>
  </defs>
  <path id="Path_40" data-name="Path 40" class="cls-1" d="M18.818,4.3h0l0,0a.616.616,0,0,0,.118-.18.525.525,0,0,0,.023-.06.613.613,0,0,0,.031-.158.5.5,0,0,0,0-.06c0-.011,0-.02,0-.031a.628.628,0,0,0-.04-.182c0-.006-.007-.011-.009-.017a.634.634,0,0,0-.108-.171c-.006-.007-.008-.017-.015-.024L15.767.188a.6.6,0,0,0-.859-.01.64.64,0,0,0-.01.886l1.65,1.74a17.746,17.746,0,0,0-4.893.19C4.338,4.181-.839,10.226.113,16.471a.613.613,0,0,0,.6.529.641.641,0,0,0,.1-.007.625.625,0,0,0,.506-.716C.465,10.714,5.189,5.311,11.863,4.228a16.681,16.681,0,0,1,4.785-.152L14.1,5.429a.636.636,0,0,0-.262.844.6.6,0,0,0,.818.27L18.672,4.41a.632.632,0,0,0,.146-.109Z"/>
</svg>
