<svg xmlns="http://www.w3.org/2000/svg" viewBox="0 0 19 17"><defs><style>.cls-1{fill:#1d1d1b}</style></defs><path id="Path_40" data-name="Path 40" class="cls-1" d="M18.818 4.3a.616.616 0 0 0 .118-.18.525.525 0 0 0 .023-.06.613.613 0 0 0 .03-.158.5.5 0 0 0 0-.06v-.03a.628.628 0 0 0-.04-.183c0-.007-.007-.012-.01-.018a.634.634 0 0 0-.107-.17c-.006-.008-.008-.018-.015-.025l-3.05-3.23a.6.6 0 0 0-.86-.01.64.64 0 0 0-.01.887l1.65 1.74a17.746 17.746 0 0 0-4.893.19C4.338 4.18-.84 10.226.113 16.47a.613.613 0 0 0 .6.53.64.64 0 0 0 .1-.007.625.625 0 0 0 .506-.716C.464 10.714 5.19 5.31 11.862 4.227a16.68 16.68 0 0 1 4.785-.15L14.1 5.428a.636.636 0 0 0-.262.843.6.6 0 0 0 .818.27l4.016-2.133a.632.632 0 0 0 .146-.11z"/></svg>