<svg xmlns="http://www.w3.org/2000/svg" viewBox="0 0 20 16">
  <g id="lnr-sync" transform="translate(-0.001 -2)">
    <path id="Path_32" data-name="Path 32" d="M19.854,8.646a.5.5,0,0,0-.707,0L18,9.8A8,8,0,0,0,2.923,6.266a.5.5,0,1,0,.884.468A7,7,0,0,1,17,9.789L15.854,8.646a.5.5,0,0,0-.707.707l2,2a.5.5,0,0,0,.708,0l2-2a.5.5,0,0,0,0-.707Z"/>
    <path id="Path_33" data-name="Path 33" d="M16.869,13.058a.5.5,0,0,0-.676.208A7,7,0,0,1,3,10.211l1.143,1.143a.5.5,0,0,0,.708-.707l-2-2a.5.5,0,0,0-.707,0l-2,2a.5.5,0,0,0,.707.707L2,10.2a8,8,0,0,0,15.075,3.529.5.5,0,0,0-.208-.676Z"/>
  </g>
</svg>
