<svg xmlns="http://www.w3.org/2000/svg" viewBox="0 0 17.51 18.883">
  <defs>
    <style>
      .cls-1 {
        fill: #2196f3;
      }
    </style>
  </defs>
  <path id="music-player" class="cls-1" d="M19.393.086A.348.348,0,0,0,19.122,0L8.479,1.38a.343.343,0,0,0-.3.34V13.948A3.563,3.563,0,0,0,5.433,12.7,3.279,3.279,0,0,0,2,15.794a3.279,3.279,0,0,0,3.433,3.09,3.279,3.279,0,0,0,3.433-3.09c0-.08-.007-.158-.013-.236a.33.33,0,0,0,.013-.066V5.534l9.957-1.289v6.268A3.564,3.564,0,0,0,16.077,9.27a3.279,3.279,0,0,0-3.433,3.09,3.279,3.279,0,0,0,3.433,3.09,3.284,3.284,0,0,0,3.431-3.044s0-.008,0-.013V.344A.343.343,0,0,0,19.393.086ZM5.433,18.2a2.6,2.6,0,0,1-2.747-2.4,2.6,2.6,0,0,1,2.747-2.4,2.6,2.6,0,0,1,2.747,2.4A2.6,2.6,0,0,1,5.433,18.2Zm10.643-3.433a2.6,2.6,0,0,1-2.747-2.4,2.6,2.6,0,0,1,2.747-2.4,2.6,2.6,0,0,1,2.747,2.4A2.6,2.6,0,0,1,16.077,14.764ZM8.867,4.842V2.022L18.823.734V3.553Z" transform="translate(-2 -0.001)"/>
</svg>
