<svg xmlns="http://www.w3.org/2000/svg" viewBox="0 0 15 19.001">
  <g id="lnr-enter-down" transform="translate(-2 -0.999)">
    <path id="Path_36" data-name="Path 36" d="M12.854,11.646a.5.5,0,0,0-.707,0L10,13.792V1.5a.5.5,0,1,0-1,0V13.792L6.855,11.646a.5.5,0,1,0-.707.707l3,3a.5.5,0,0,0,.708,0l3-3a.5.5,0,0,0,0-.707Z"/>
    <path id="Path_37" data-name="Path 37" d="M15.5,20H3.5A1.5,1.5,0,0,1,2,18.5V8.5A1.5,1.5,0,0,1,3.5,7h4a.5.5,0,0,1,0,1h-4a.5.5,0,0,0-.5.5v10a.5.5,0,0,0,.5.5h12a.5.5,0,0,0,.5-.5V8.5a.5.5,0,0,0-.5-.5h-4a.5.5,0,0,1,0-1h4A1.5,1.5,0,0,1,17,8.5v10A1.5,1.5,0,0,1,15.5,20Z"/>
  </g>
</svg>
